<svg xmlns="http://www.w3.org/2000/svg" xmlns:xlink="http://www.w3.org/1999/xlink" version="1.1" id="Слой_1" x="0px" y="0px" style="enable-background:new 0 0 300 300;" xml:space="preserve" viewBox="48.88 2.27 203.22 295.46">
<path d="M148.95,2.27c0,0,2.62,135.57-100.07,147.73c0,0,91.31,1.63,100.07,142.93c0,0,0.96-135.34,103.15-142.93  c-16.57-1.54-29.16-6.31-38.23-11.1C149.02,104.67,148.87,8.75,148.95,2.27z"/>
<path d="M76.47,223.32c0,0,0.67,34.71-25.62,37.82c0,0,23.37,0.42,25.62,36.59c0,0,0.25-34.65,26.41-36.59  c-4.24-0.39-7.47-1.62-9.79-2.84C76.49,249.54,76.45,224.98,76.47,223.32z"/>
</svg>