<?xml version="1.0" encoding="utf-8"?>
<!-- Generator: Adobe Illustrator 26.3.1, SVG Export Plug-In . SVG Version: 6.00 Build 0)  -->
<svg version="1.1" id="Слой_1" xmlns="http://www.w3.org/2000/svg" xmlns:xlink="http://www.w3.org/1999/xlink" x="0px" y="0px"
	 viewBox="0 0 841.89 595.28" style="enable-background:new 0 0 841.89 595.28;" xml:space="preserve">
<style type="text/css">
	.st0{fill:#1D1D1B;}
</style>
<g>
	<path class="st0" d="M399.74,531.72l-37.29-135.03l-63.86,124.68l17.22-139.02L209.1,473.1l69.11-121.85l-133.31,43.01
		l110.48-86.12l-139.62-11.28l135.02-37.29l-124.68-63.86l139.02,17.22l-90.75-106.71l121.85,69.11L253.2,42.01l86.12,110.48
		l11.28-139.62l37.29,135.02l63.86-124.68l-17.22,139.02l106.71-90.75l-69.11,121.84l133.31-43.01l-110.48,86.12l139.62,11.28
		l-135.02,37.29l124.68,63.86l-139.02-17.22l90.75,106.71l-121.85-69.11l43.01,133.31l-86.12-110.48L399.74,531.72z M365.81,363.8
		l27.43,99.32l8.3-102.71l63.35,81.27l-31.63-98.07l89.63,50.84l-66.75-78.49l102.26,12.67l-91.71-46.97L566,254.22l-102.71-8.3
		l81.27-63.35L446.5,214.2l50.84-89.63l-78.49,66.75l12.67-102.26l-46.97,91.71L357.1,81.46l-8.3,102.71l-63.35-81.27l31.63,98.07
		l-89.63-50.84l66.75,78.49l-102.26-12.67l91.71,46.97l-99.32,27.43l102.71,8.3l-81.27,63.35l98.07-31.63l-50.84,89.63l78.49-66.75
		l-12.67,102.26L365.81,363.8z"/>
</g>
</svg>
