<?xml version="1.0" encoding="utf-8"?>
<!-- Generator: Adobe Illustrator 26.3.1, SVG Export Plug-In . SVG Version: 6.00 Build 0)  -->
<svg version="1.1" id="Слой_1" xmlns="http://www.w3.org/2000/svg" xmlns:xlink="http://www.w3.org/1999/xlink" x="0px" y="0px"
	 viewBox="0 0 300 300" style="enable-background:new 0 0 300 300;" xml:space="preserve">
<style type="text/css">
	.st0{fill:#1D1D1B;}
</style>
<g>
	<path class="st0" d="M164.08,300l-21.56-78.07l-36.92,72.09l9.96-80.38l-61.7,52.47l39.96-70.45l-77.08,24.87l63.88-49.8
		l-80.73-6.52l78.07-21.56L5.86,105.72l80.38,9.96l-52.47-61.7l70.45,39.96L79.35,16.85l49.8,63.88L135.68,0l21.56,78.07
		l36.92-72.09l-9.96,80.38l61.7-52.47l-39.96,70.45l77.08-24.87l-63.88,49.8l80.73,6.52l-78.07,21.56l72.09,36.92l-80.38-9.96
		l52.47,61.7l-70.45-39.96l24.87,77.08l-49.8-63.88L164.08,300z M144.47,202.91l15.86,57.43l4.8-59.38l36.63,46.99l-18.29-56.7
		l51.82,29.39l-38.6-45.38l59.13,7.32l-53.03-27.16l57.43-15.86l-59.38-4.8l46.99-36.63l-56.7,18.29l29.39-51.82l-45.39,38.6
		l7.32-59.13l-27.16,53.03l-15.86-57.43l-4.8,59.38L98,52.06l18.29,56.7L64.47,79.37l38.6,45.39l-59.13-7.32l53.03,27.16
		l-57.43,15.86l59.38,4.8l-46.99,36.63l56.7-18.29l-29.39,51.82l45.39-38.6l-7.32,59.13L144.47,202.91z"/>
</g>
</svg>
